<svg width="25" height="25" viewBox="0 0 25 25" fill="none" xmlns="http://www.w3.org/2000/svg">
<path d="M12.6335 5.94983C8.31351 5.94983 4.63351 9.27983 2.57351 12.3998L2.22351 12.9498L2.58351 13.4998C4.63351 16.6198 8.31351 19.9498 12.6335 19.9498C16.9535 19.9498 20.6335 16.6198 22.6935 13.4998L23.0535 12.9498L22.6935 12.3998C20.6335 9.27983 16.9535 5.94983 12.6335 5.94983ZM12.6335 17.9498C9.35351 17.9498 6.42351 15.4598 4.63351 12.9498C6.43351 10.4398 9.36351 7.94983 12.6335 7.94983C15.9035 7.94983 18.8435 10.4398 20.6335 12.9498C18.8435 15.4598 15.9135 17.9498 12.6335 17.9498Z" fill="#3E334E"/>
<path d="M12.6335 8.94983C11.8424 8.94983 11.069 9.18443 10.4112 9.62395C9.75341 10.0635 9.24072 10.6882 8.93797 11.4191C8.63522 12.15 8.556 12.9543 8.71034 13.7302C8.86469 14.5061 9.24565 15.2188 9.80506 15.7783C10.3645 16.3377 11.0772 16.7186 11.8531 16.873C12.629 17.0273 13.4333 16.9481 14.1642 16.6453C14.8951 16.3426 15.5198 15.8299 15.9594 15.1721C16.3989 14.5143 16.6335 13.741 16.6335 12.9498C16.6335 11.889 16.2121 10.8715 15.4619 10.1214C14.7118 9.37126 13.6944 8.94983 12.6335 8.94983ZM12.6335 14.9498C12.2379 14.9498 11.8512 14.8325 11.5223 14.6128C11.1934 14.393 10.9371 14.0806 10.7857 13.7152C10.6344 13.3497 10.5947 12.9476 10.6719 12.5596C10.7491 12.1717 10.9396 11.8153 11.2193 11.5356C11.499 11.2559 11.8553 11.0654 12.2433 10.9883C12.6313 10.9111 13.0334 10.9507 13.3989 11.1021C13.7643 11.2534 14.0767 11.5098 14.2964 11.8387C14.5162 12.1676 14.6335 12.5543 14.6335 12.9498C14.6335 13.4803 14.4228 13.989 14.0477 14.364C13.6726 14.7391 13.1639 14.9498 12.6335 14.9498Z" fill="#3E334E"/>
</svg>
