<svg width="25" height="25" viewBox="0 0 25 25" fill="none" xmlns="http://www.w3.org/2000/svg">
<g clip-path="url(#clip0_37_621)">
<path d="M5.34349 4.23977C5.25025 4.14653 5.13956 4.07257 5.01774 4.02211C4.89591 3.97165 4.76535 3.94568 4.63349 3.94568C4.50163 3.94568 4.37106 3.97165 4.24924 4.02211C4.12742 4.07257 4.01672 4.14653 3.92349 4.23977C3.73518 4.42807 3.62939 4.68347 3.62939 4.94977C3.62939 5.21607 3.73518 5.47147 3.92349 5.65977L9.55349 11.2898C9.19729 11.9524 9.06407 12.7121 9.17357 13.4564C9.28308 14.2007 9.62948 14.8899 10.1614 15.4218C10.6934 15.9538 11.3826 16.3002 12.1268 16.4097C12.8711 16.5192 13.6309 16.386 14.2935 16.0298L19.9235 21.6598C20.0164 21.7535 20.1271 21.8279 20.2489 21.8787C20.3708 21.9294 20.5015 21.9556 20.6335 21.9556C20.7655 21.9556 20.8962 21.9294 21.0181 21.8787C21.1399 21.8279 21.2505 21.7535 21.3435 21.6598C21.4372 21.5668 21.5116 21.4562 21.5624 21.3343C21.6131 21.2125 21.6393 21.0818 21.6393 20.9498C21.6393 20.8178 21.6131 20.6871 21.5624 20.5652C21.5116 20.4433 21.4372 20.3327 21.3435 20.2398L5.34349 4.23977ZM12.6335 14.4498C12.2357 14.4498 11.8541 14.2917 11.5728 14.0104C11.2915 13.7291 11.1335 13.3476 11.1335 12.9498V12.8798L12.6935 14.4398L12.6335 14.4498Z" fill="#B2A6C5"/>
<path d="M12.8535 17.9498C8.55349 18.0498 5.73349 14.3598 4.85349 12.9498C5.47996 11.9505 6.23285 11.0363 7.09349 10.2298L5.63349 8.81982C4.50482 9.88329 3.5379 11.1063 2.76349 12.4498C2.67572 12.6018 2.62952 12.7743 2.62952 12.9498C2.62952 13.1254 2.67572 13.2978 2.76349 13.4498C3.39349 14.5398 6.76349 19.9498 12.6535 19.9498H12.9035C14.011 19.917 15.1043 19.6902 16.1335 19.2798L14.5535 17.6998C13.9979 17.846 13.4277 17.9298 12.8535 17.9498ZM22.5035 12.4498C21.8635 11.3398 18.3335 5.76982 12.3635 5.94982C11.2559 5.98268 10.1627 6.20944 9.13349 6.61982L10.7135 8.19982C11.2691 8.05365 11.8393 7.9698 12.4135 7.94982C16.7035 7.83982 19.5235 11.5398 20.4135 12.9498C19.7716 13.9521 19.0017 14.8665 18.1235 15.6698L19.6335 17.0798C20.7763 16.0191 21.7568 14.796 22.5435 13.4498C22.6253 13.2943 22.6646 13.12 22.6576 12.9445C22.6506 12.7689 22.5974 12.5983 22.5035 12.4498Z" fill="#B2A6C5"/>
</g>
<defs>
<clipPath id="clip0_37_621">
<rect width="24" height="24" fill="white" transform="translate(0.633484 0.949829)"/>
</clipPath>
</defs>
</svg>
